<svg id="SvgjsSvg1011" xmlns="http://www.w3.org/2000/svg" version="1.1" xmlns:xlink="http://www.w3.org/1999/xlink" xmlns:svgjs="http://svgjs.com/svgjs" width="28" height="27" viewBox="0 0 28 27"><title>Shape 1</title><desc>Created with Avocode.</desc><defs id="SvgjsDefs1012"></defs><path id="SvgjsPath1013" d="M321.35 604.726C320.79600000000005 604.15 320.12800000000004 603.842 319.42100000000005 603.842C318.71900000000005 603.842 318.0450000000001 604.144 317.46900000000005 604.72L315.66600000000005 606.515C315.51700000000005 606.435 315.369 606.361 315.22600000000006 606.287C315.0210000000001 606.1840000000001 314.82700000000006 606.087 314.66100000000006 605.985C312.97200000000004 604.914 311.43700000000007 603.517 309.96400000000006 601.711C309.25100000000003 600.811 308.77200000000005 600.053 308.42300000000006 599.283C308.8910000000001 598.856 309.32500000000005 598.412 309.74700000000007 597.984C309.9070000000001 597.825 310.06700000000006 597.659 310.2270000000001 597.5C311.42500000000007 596.303 311.42500000000007 594.753 310.2270000000001 593.556L308.6690000000001 592.0010000000001C308.4920000000001 591.8240000000001 308.3090000000001 591.642 308.1380000000001 591.4590000000001C307.7960000000001 591.1060000000001 307.4360000000001 590.7410000000001 307.0650000000001 590.4000000000001C306.5120000000001 589.8520000000001 305.85000000000014 589.5620000000001 305.15300000000013 589.5620000000001C304.4570000000001 589.5620000000001 303.7840000000001 589.8520000000001 303.21300000000014 590.4000000000001C303.20700000000016 590.4050000000001 303.20700000000016 590.4050000000001 303.2020000000001 590.4110000000001L301.26100000000014 592.365C300.5310000000001 593.095 300.11400000000015 593.984 300.02300000000014 595.015C299.88600000000014 596.679 300.3770000000001 598.229 300.75300000000016 599.244C301.67800000000017 601.734 303.05900000000014 604.042 305.11900000000014 606.515C307.61900000000014 609.495 310.62600000000015 611.8489999999999 314.0620000000001 613.507C315.3750000000001 614.1279999999999 317.1270000000001 614.8629999999999 319.0840000000001 614.9889999999999C319.2040000000001 614.9939999999999 319.3290000000001 614.9999999999999 319.44400000000013 614.9999999999999C320.7620000000001 614.9999999999999 321.86900000000014 614.5269999999999 322.7360000000001 613.5869999999999C322.7420000000001 613.5749999999999 322.7540000000001 613.5699999999998 322.7590000000001 613.5579999999999C323.05600000000015 613.1989999999998 323.39800000000014 612.8739999999999 323.75800000000015 612.5269999999999C324.00300000000016 612.2929999999999 324.25400000000013 612.0479999999999 324.50000000000017 611.7919999999999C325.06500000000017 611.2049999999999 325.3620000000002 610.521 325.3620000000002 609.8199999999999C325.3620000000002 609.1129999999999 325.0590000000002 608.435 324.4830000000002 607.8649999999999ZM323.393 610.726C323.387 610.726 323.387 610.732 323.393 610.726C323.16999999999996 610.965 322.94199999999995 611.182 322.69599999999997 611.421C322.32599999999996 611.7750000000001 321.94899999999996 612.1450000000001 321.59499999999997 612.561C321.01899999999995 613.176 320.34 613.467 319.44899999999996 613.467C319.364 613.467 319.27199999999993 613.467 319.18699999999995 613.461C317.49199999999996 613.3530000000001 315.917 612.692 314.73499999999996 612.128C311.50499999999994 610.567 308.669 608.35 306.31199999999995 605.5400000000001C304.36599999999993 603.1980000000001 303.06499999999994 601.0330000000001 302.203 598.7080000000001C301.67199999999997 597.2890000000001 301.47799999999995 596.1830000000001 301.56399999999996 595.1410000000001C301.621 594.474 301.878 593.921 302.35099999999994 593.4480000000001L304.29699999999997 591.5050000000001C304.57699999999994 591.2430000000002 304.87399999999997 591.1000000000001 305.16499999999996 591.1000000000001C305.52399999999994 591.1000000000001 305.81499999999994 591.3170000000001 305.998 591.4990000000001C306.00399999999996 591.5050000000001 306.009 591.5110000000001 306.015 591.5160000000002C306.363 591.8410000000002 306.69399999999996 592.1770000000001 307.042 592.5360000000002C307.219 592.7190000000002 307.402 592.9010000000002 307.585 593.0890000000002L309.143 594.6450000000002C309.74699999999996 595.2490000000003 309.74699999999996 595.8070000000002 309.143 596.4110000000002C308.977 596.5770000000002 308.81699999999995 596.7420000000002 308.652 596.9010000000002C308.17199999999997 597.3920000000002 307.716 597.8480000000002 307.219 598.2920000000001C307.20799999999997 598.3030000000001 307.19599999999997 598.3090000000002 307.191 598.3200000000002C306.7 598.8110000000001 306.791 599.2890000000002 306.89399999999995 599.6140000000001C306.8999999999999 599.6310000000002 306.905 599.6480000000001 306.91099999999994 599.6650000000002C307.3159999999999 600.6450000000002 307.88699999999994 601.5690000000002 308.75399999999996 602.6680000000002L308.75999999999993 602.6740000000002C310.3349999999999 604.6120000000002 311.9959999999999 606.1220000000002 313.8279999999999 607.2780000000002C314.0619999999999 607.4270000000002 314.3019999999999 607.5460000000003 314.5299999999999 607.6600000000002C314.7349999999999 607.7630000000001 314.9289999999999 607.8600000000002 315.0949999999999 607.9620000000002C315.11799999999994 607.9740000000002 315.1409999999999 607.9910000000002 315.1629999999999 608.0020000000002C315.3569999999999 608.0990000000002 315.5399999999999 608.1450000000002 315.7279999999999 608.1450000000002C316.2019999999999 608.1450000000002 316.4989999999999 607.8480000000002 316.5959999999999 607.7510000000002L318.5479999999999 605.8030000000002C318.7419999999999 605.6090000000003 319.0499999999999 605.3750000000002 319.4089999999999 605.3750000000002C319.76299999999986 605.3750000000002 320.05399999999986 605.5970000000002 320.2309999999999 605.7910000000003C320.23699999999985 605.7970000000003 320.23699999999985 605.7970000000003 320.2429999999999 605.8030000000002L323.3869999999999 608.9420000000002C323.9749999999999 609.5240000000002 323.9749999999999 610.1220000000002 323.39299999999986 610.7260000000002ZM314.593 594.423C316.088 594.673 317.446 595.38 318.53000000000003 596.463C319.615 597.545 320.317 598.9019999999999 320.574 600.395C320.636 600.771 320.962 601.033 321.333 601.033C321.37800000000004 601.033 321.418 601.027 321.464 601.022C321.886 600.9530000000001 322.166 600.5540000000001 322.097 600.133C321.789 598.326 320.933 596.6790000000001 319.626 595.374C318.31899999999996 594.0690000000001 316.66999999999996 593.215 314.861 592.907C314.43899999999996 592.8380000000001 314.045 593.118 313.971 593.534C313.896 593.95 314.17 594.354 314.593 594.423ZM326.988 599.91C326.48 596.9359999999999 325.076 594.2289999999999 322.919 592.0749999999999C320.762 589.9209999999999 318.051 588.5189999999999 315.072 588.012C314.65500000000003 587.938 314.262 588.223 314.187 588.6389999999999C314.119 589.06 314.399 589.454 314.821 589.5279999999999C317.48 589.978 319.906 591.2369999999999 321.83500000000004 593.1579999999999C323.764 595.084 325.01900000000006 597.5059999999999 325.47 600.161C325.533 600.5369999999999 325.858 600.799 326.22900000000004 600.799C326.27500000000003 600.799 326.31500000000005 600.794 326.36 600.788C326.777 600.725 327.062 600.326 326.988 599.91Z " fill="#ffffff" fill-opacity="1" transform="matrix(1,0,0,1,-299,-588)"></path></svg>