<svg id="SvgjsSvg1008" xmlns="http://www.w3.org/2000/svg" version="1.1" xmlns:xlink="http://www.w3.org/1999/xlink" xmlns:svgjs="http://svgjs.com/svgjs" width="28" height="28" viewBox="0 0 28 28"><title>Forma 1</title><desc>Created with Avocode.</desc><defs id="SvgjsDefs1009"></defs><path id="SvgjsPath1010" d="M201 601.639C201 609.172 194.846 615.279 187.255 615.279C184.845 615.279 182.57999999999998 614.663 180.60999999999999 613.582L172.99999999999997 616L175.48099999999997 608.682C174.22999999999996 606.6270000000001 173.50899999999996 604.216 173.50899999999996 601.639C173.50899999999996 594.106 179.66299999999995 588 187.25499999999997 588C194.84699999999998 588 200.99999999999997 594.106 200.99999999999997 601.639ZM187.255 590.172C180.882 590.172 175.698 595.316 175.698 601.639C175.698 604.149 176.51600000000002 606.472 177.899 608.363L176.455 612.6210000000001L180.89700000000002 611.2100000000002C182.72100000000003 612.4080000000001 184.907 613.1060000000001 187.25500000000002 613.1060000000001C193.627 613.1060000000001 198.81100000000004 607.9630000000001 198.81100000000004 601.6400000000001C198.81100000000004 595.3170000000001 193.62700000000004 590.1720000000001 187.25500000000002 590.1720000000001ZM194.196 604.781C194.111 604.641 193.886 604.558 193.55 604.39C193.21200000000002 604.223 191.555 603.414 191.247 603.303C190.93800000000002 603.192 190.71300000000002 603.136 190.489 603.47C190.26500000000001 603.8050000000001 189.619 604.558 189.422 604.7810000000001C189.225 605.004 189.029 605.032 188.692 604.865C188.35500000000002 604.698 187.269 604.344 185.982 603.206C184.981 602.32 184.304 601.226 184.108 600.89C183.912 600.556 184.08700000000002 600.375 184.256 600.209C184.408 600.059 184.593 599.818 184.761 599.6229999999999C184.93 599.4279999999999 184.986 599.289 185.09799999999998 599.0659999999999C185.21099999999998 598.8419999999999 185.154 598.6469999999999 185.07 598.4799999999999C184.986 598.3129999999999 184.311 596.6679999999999 184.031 595.9979999999999C183.75 595.329 183.47 595.4409999999999 183.273 595.4409999999999C183.077 595.4409999999999 182.852 595.4119999999999 182.627 595.4119999999999C182.40200000000002 595.4119999999999 182.037 595.4959999999999 181.728 595.8309999999999C181.42000000000002 596.1649999999998 180.549 596.9739999999999 180.549 598.6189999999999C180.549 600.2639999999999 181.756 601.8539999999999 181.925 602.0769999999999C182.09300000000002 602.2989999999999 184.25500000000002 605.7849999999999 187.681 607.1239999999999C191.107 608.4619999999999 191.107 608.016 191.72400000000002 607.9599999999999C192.342 607.9039999999999 193.717 607.151 193.99900000000002 606.3709999999999C194.28000000000003 605.5889999999998 194.28000000000003 604.9199999999998 194.19600000000003 604.7809999999998Z " fill="#ffffff" fill-opacity="1" transform="matrix(1,0,0,1,-173,-588)"></path></svg>